<?xml version="1.0" encoding="iso-8859-1"?>
<!-- Generator: Adobe Illustrator 19.0.0, SVG Export Plug-In . SVG Version: 6.00 Build 0)  -->
<svg version="1.1" id="Layer_1" xmlns="http://www.w3.org/2000/svg" xmlns:xlink="http://www.w3.org/1999/xlink" x="0px" y="0px"
	 viewBox="0 0 486.4 486.4" style="enable-background:new 0 0 486.4 486.4;" xml:space="preserve">
<g>
	<g>
		<g>
			<path d="M452.812,236.171c3.219-9.822,4.847-20.065,4.847-30.529c0-28.807-12.273-55.492-33.889-74.153
				c0.95-4.747,1.43-9.573,1.43-14.415c0-40.523-32.968-73.491-73.491-73.491c-2.213,0-4.448,0.104-6.688,0.312
				C326.315,16.836,295.19,0.169,262.341,0c-0.017,0-0.032,0-0.049,0c-2.51,0-4.92,0.993-6.7,2.765
				c-1.792,1.783-2.8,4.207-2.8,6.735v467.4c0,2.528,1.008,4.952,2.8,6.735c1.78,1.771,4.19,2.765,6.7,2.765
				c0.017,0,0.032,0,0.048,0c45.138-0.233,85.051-30.908,96.452-72.711c3.047,0.255,6.102,0.383,9.144,0.383
				c60.212,0,109.197-48.986,109.197-109.197C477.134,279.752,468.537,255.575,452.812,236.171z M367.938,395.071
				c-4.998,0-10.038-0.419-14.984-1.245c-5.168-0.865-10.06,2.622-10.932,7.788c-5.782,34.235-35.15,60.872-70.229,65.177V19.623
				c24.725,3.108,47.286,17.63,60.385,39.387c2.033,3.378,5.939,5.149,9.819,4.451c3.255-0.585,6.522-0.881,9.712-0.881
				c30.046,0,54.491,24.444,54.491,54.491c0,5.18-0.741,10.34-2.203,15.335c-1.106,3.78,0.234,7.851,3.371,10.233
				c19.886,15.108,31.292,38.07,31.292,63.001c0,10.021-1.847,19.783-5.491,29.015c-1.324,3.355-0.635,7.17,1.78,9.849
				c14.951,16.585,23.186,38.025,23.186,60.37C458.135,354.609,417.672,395.071,367.938,395.071z"/>
			<path d="M224.109,0c-0.016,0-0.032,0-0.049,0c-32.849,0.169-63.973,16.836-82.68,43.895c-2.24-0.208-4.475-0.312-6.688-0.312
				c-40.523,0-73.491,32.968-73.491,73.491c0,4.842,0.48,9.668,1.43,14.415c-21.616,18.661-33.889,45.345-33.889,74.153
				c0,10.464,1.628,20.706,4.847,30.529c-15.725,19.405-24.322,43.581-24.322,68.704c0,60.212,48.985,109.197,109.197,109.197
				c3.042,0,6.097-0.128,9.144-0.383c11.401,41.803,51.314,72.478,96.452,72.711c0.017,0,0.032,0,0.049,0
				c2.511,0,4.92-0.994,6.7-2.765c1.792-1.783,2.8-4.207,2.8-6.735V9.5c0-2.528-1.008-4.952-2.8-6.735
				C229.029,0.994,226.618,0,224.109,0z M214.609,466.792c-35.08-4.305-64.447-30.942-70.229-65.177
				c-0.783-4.637-4.804-7.919-9.356-7.919c-0.519,0-1.046,0.042-1.576,0.133c-4.946,0.826-9.986,1.245-14.984,1.245
				c-49.735,0-90.197-40.463-90.197-90.197c0-22.346,8.235-43.785,23.186-60.37c2.415-2.679,3.104-6.494,1.78-9.849
				c-3.644-9.232-5.491-18.994-5.491-29.015c0-24.931,11.406-47.894,31.292-63.001c3.136-2.383,4.477-6.453,3.371-10.233
				c-1.462-4.996-2.203-10.155-2.203-15.335c0-30.046,24.444-54.491,54.491-54.491c3.19,0,6.457,0.296,9.712,0.881
				c3.881,0.697,7.786-1.074,9.819-4.451c13.099-21.761,35.66-36.282,60.385-39.39V466.792z"/>
			<path d="M63.508,303.475c0-7.433,1.399-14.658,4.159-21.475c1.968-4.864-0.379-10.402-5.242-12.371
				c-4.862-1.968-10.4,0.377-12.37,5.241c-3.68,9.093-5.547,18.717-5.547,28.604c0,15.625,4.694,30.647,13.572,43.441
				c1.846,2.659,4.804,4.084,7.813,4.084c1.869,0,3.757-0.55,5.408-1.695c4.31-2.991,5.38-8.91,2.389-13.221
				C67.029,326.486,63.508,315.21,63.508,303.475z"/>
			<path d="M120.782,360.748c-8.027,0-15.786-1.625-23.06-4.829c-4.802-2.113-10.409,0.063-12.523,4.865
				c-2.115,4.801,0.063,10.408,4.864,12.523c9.704,4.274,20.039,6.441,30.719,6.441c5.246,0,9.5-4.253,9.5-9.5
				S126.028,360.748,120.782,360.748z"/>
			<path d="M397.615,183.275c1.797,2.905,4.906,4.503,8.088,4.503c1.705,0,3.432-0.46,4.99-1.424
				c4.461-2.761,5.841-8.616,3.08-13.077c-7.842-12.675-19.906-22.288-33.97-27.068c-6.646-2.259-13.602-3.404-20.676-3.404
				c-5.246,0-9.5,4.253-9.5,9.5s4.254,9.5,9.5,9.5c4.991,0,9.889,0.806,14.562,2.394
				C383.589,167.564,392.086,174.339,397.615,183.275z"/>
			<path d="M413.844,197.523c-5.246,0-9.5,4.253-9.5,9.5c0,15.782-8.025,30.17-21.466,38.486c-4.461,2.76-5.841,8.615-3.08,13.077
				c1.797,2.905,4.906,4.503,8.088,4.503c1.705,0,3.432-0.459,4.989-1.422c19.079-11.805,30.469-32.232,30.469-54.644
				C423.344,201.776,419.09,197.523,413.844,197.523z"/>
			<path d="M186.628,192.41c5.246,0,9.5-4.253,9.5-9.5V68.838c0-5.247-4.254-9.5-9.5-9.5c-5.246,0-9.5,4.253-9.5,9.5V182.91
				C177.128,188.157,181.383,192.41,186.628,192.41z"/>
			<path d="M186.628,256.402c5.246,0,9.5-4.254,9.5-9.5v-21.33c0-5.247-4.254-9.5-9.5-9.5c-5.246,0-9.5,4.253-9.5,9.5v21.33
				C177.128,252.149,181.383,256.402,186.628,256.402z"/>
		</g>
	</g>
</g>
<g>
</g>
<g>
</g>
<g>
</g>
<g>
</g>
<g>
</g>
<g>
</g>
<g>
</g>
<g>
</g>
<g>
</g>
<g>
</g>
<g>
</g>
<g>
</g>
<g>
</g>
<g>
</g>
<g>
</g>
</svg>
