<svg width="487" height="487" viewBox="0 0 487 487" fill="none" xmlns="http://www.w3.org/2000/svg">
<g clip-path="url(#clip0_20_2)">
<path d="M452.812 236.171C456.031 226.349 457.659 216.106 457.659 205.642C457.659 176.835 445.386 150.15 423.77 131.489C424.72 126.742 425.2 121.916 425.2 117.074C425.2 76.551 392.232 43.583 351.709 43.583C349.496 43.583 347.261 43.687 345.021 43.895C326.315 16.836 295.19 0.169 262.341 0C262.324 0 262.309 0 262.292 0C259.782 0 257.372 0.993 255.592 2.765C253.8 4.548 252.792 6.972 252.792 9.5V476.9C252.792 479.428 253.8 481.852 255.592 483.635C257.372 485.406 259.782 486.4 262.292 486.4C262.309 486.4 262.324 486.4 262.34 486.4C307.478 486.167 347.391 455.492 358.792 413.689C361.839 413.944 364.894 414.072 367.936 414.072C428.148 414.072 477.133 365.086 477.133 304.875C477.134 279.752 468.537 255.575 452.812 236.171ZM367.938 395.071C362.94 395.071 357.9 394.652 352.954 393.826C347.786 392.961 342.894 396.448 342.022 401.614C336.24 435.849 306.872 462.486 271.793 466.791V19.623C296.518 22.731 319.079 37.253 332.178 59.01C334.211 62.388 338.117 64.159 341.997 63.461C345.252 62.876 348.519 62.58 351.709 62.58C381.755 62.58 406.2 87.024 406.2 117.071C406.2 122.251 405.459 127.411 403.997 132.406C402.891 136.186 404.231 140.257 407.368 142.639C427.254 157.747 438.66 180.709 438.66 205.64C438.66 215.661 436.813 225.423 433.169 234.655C431.845 238.01 432.534 241.825 434.949 244.504C449.9 261.089 458.135 282.529 458.135 304.874C458.135 354.609 417.672 395.071 367.938 395.071Z" fill="#009933"/>
<path d="M224.109 0C224.093 0 224.077 0 224.06 0C191.211 0.169 160.087 16.836 141.38 43.895C139.14 43.687 136.905 43.583 134.692 43.583C94.169 43.583 61.201 76.551 61.201 117.074C61.201 121.916 61.681 126.742 62.631 131.489C41.015 150.15 28.742 176.834 28.742 205.642C28.742 216.106 30.37 226.348 33.589 236.171C17.864 255.576 9.26697 279.752 9.26697 304.875C9.26697 365.087 58.252 414.072 118.464 414.072C121.506 414.072 124.561 413.944 127.608 413.689C139.009 455.492 178.922 486.167 224.06 486.4C224.077 486.4 224.092 486.4 224.109 486.4C226.62 486.4 229.029 485.406 230.809 483.635C232.601 481.852 233.609 479.428 233.609 476.9V9.5C233.609 6.972 232.601 4.548 230.809 2.765C229.029 0.994 226.618 0 224.109 0ZM214.609 466.792C179.529 462.487 150.162 435.85 144.38 401.615C143.597 396.978 139.576 393.696 135.024 393.696C134.505 393.696 133.978 393.738 133.448 393.829C128.502 394.655 123.462 395.074 118.464 395.074C68.729 395.074 28.267 354.611 28.267 304.877C28.267 282.531 36.502 261.092 51.453 244.507C53.868 241.828 54.557 238.013 53.233 234.658C49.589 225.426 47.742 215.664 47.742 205.643C47.742 180.712 59.148 157.749 79.034 142.642C82.17 140.259 83.511 136.189 82.405 132.409C80.943 127.413 80.202 122.254 80.202 117.074C80.202 87.028 104.646 62.583 134.693 62.583C137.883 62.583 141.15 62.879 144.405 63.464C148.286 64.161 152.191 62.39 154.224 59.013C167.323 37.252 189.884 22.731 214.609 19.623V466.792V466.792Z" fill="#009933"/>
<path d="M63.5079 303.475C63.5079 296.042 64.9069 288.817 67.6669 282C69.6349 277.136 67.2879 271.598 62.4249 269.629C57.5629 267.661 52.0249 270.006 50.0549 274.87C46.3749 283.963 44.5079 293.587 44.5079 303.474C44.5079 319.099 49.2019 334.121 58.0799 346.915C59.9259 349.574 62.8839 350.999 65.8929 350.999C67.7619 350.999 69.6499 350.449 71.3009 349.304C75.6109 346.313 76.6809 340.394 73.6899 336.083C67.0289 326.486 63.5079 315.21 63.5079 303.475Z" fill="#009933"/>
<path d="M120.782 360.748C112.755 360.748 104.996 359.123 97.7219 355.919C92.9199 353.806 87.3129 355.982 85.1989 360.784C83.0839 365.585 85.2619 371.192 90.0629 373.307C99.7669 377.581 110.102 379.748 120.782 379.748C126.028 379.748 130.282 375.495 130.282 370.248C130.282 365.001 126.028 360.748 120.782 360.748Z" fill="#009933"/>
<path d="M397.615 183.275C399.412 186.18 402.521 187.778 405.703 187.778C407.408 187.778 409.135 187.318 410.693 186.354C415.154 183.593 416.534 177.738 413.773 173.277C405.931 160.602 393.867 150.989 379.803 146.209C373.157 143.95 366.201 142.805 359.127 142.805C353.881 142.805 349.627 147.058 349.627 152.305C349.627 157.552 353.881 161.805 359.127 161.805C364.118 161.805 369.016 162.611 373.689 164.199C383.589 167.564 392.086 174.339 397.615 183.275Z" fill="#009933"/>
<path d="M413.844 197.523C408.598 197.523 404.344 201.776 404.344 207.023C404.344 222.805 396.319 237.193 382.878 245.509C378.417 248.269 377.037 254.124 379.798 258.586C381.595 261.491 384.704 263.089 387.886 263.089C389.591 263.089 391.318 262.63 392.875 261.667C411.954 249.862 423.344 229.435 423.344 207.023C423.344 201.776 419.09 197.523 413.844 197.523Z" fill="#009933"/>
<path d="M186.628 192.41C191.874 192.41 196.128 188.157 196.128 182.91V68.838C196.128 63.591 191.874 59.338 186.628 59.338C181.382 59.338 177.128 63.591 177.128 68.838V182.91C177.128 188.157 181.383 192.41 186.628 192.41Z" fill="#009933"/>
<path d="M186.628 256.402C191.874 256.402 196.128 252.148 196.128 246.902V225.572C196.128 220.325 191.874 216.072 186.628 216.072C181.382 216.072 177.128 220.325 177.128 225.572V246.902C177.128 252.149 181.383 256.402 186.628 256.402Z" fill="#009933"/>
</g>
<defs>
<clipPath id="clip0_20_2">
<rect width="486.4" height="486.4" fill="white"/>
</clipPath>
</defs>
</svg>
