<?xml version="1.0" encoding="utf-8"?>
<!-- Generator: Adobe Illustrator 25.4.1, SVG Export Plug-In . SVG Version: 6.00 Build 0)  -->
<svg version="1.1" id="Layer_1" xmlns="http://www.w3.org/2000/svg" xmlns:xlink="http://www.w3.org/1999/xlink" x="0px" y="0px"
	 viewBox="0 0 960.6 264.4" style="enable-background:new 0 0 960.6 264.4;" xml:space="preserve">
<style type="text/css">
	.st0{fill-rule:evenodd;clip-rule:evenodd;}
	.st1{fill-opacity:0;}
	.st2{fill:#1ABCFE;}
	.st3{fill:#0ACF83;}
	.st4{fill:#FF7262;}
	.st5{fill:#F24E1E;}
	.st6{fill:#A259FF;}
</style>
<g>
	<path d="M232.2,0v204l26.2,0.1v-97.1h63.3V81.3h-63.3V25.7h82.4V0L232.2,0z"/>
	<path d="M388.1,41.4c9.5,0,17.1-7.7,17.1-17.1s-7.7-17.1-17.1-17.1c-9.5,0-17.1,7.7-17.1,17.1S378.7,41.4,388.1,41.4z"/>
	<path d="M374.8,67.1V204H401V67.1H374.8z"/>
	<path class="st0" d="M498.3,63.1c-34.9,0-59.2,29.5-59.2,64.5c0,35,24.3,64.5,59.2,64.5c16,0,29.1-6.2,38.7-16.2V194
		c0,22.7-17.8,41.6-41.1,41.6c-8.4,0-16.7-3.2-23.3-7.8l-13.2,22.8c10.5,6.8,23,10.7,36.4,10.7c37.2,0,67.3-30.1,67.3-67.3V67.1H537
		v12.2C527.4,69.3,514.3,63.1,498.3,63.1z M465.4,127.6c0-21.7,16.6-38.8,35.8-38.8c19.2,0,35.8,17.1,35.8,38.8
		s-16.6,38.8-35.8,38.8C482,166.4,465.4,149.3,465.4,127.6z"/>
	<path d="M657.8,88.8c-15.5,0-28.1,13.2-28.1,28.7V204h-26.2V67.1h26.2v12.5c7.7-9.9,19-16.5,33.8-16.5c18.4,0,32.5,9.1,40.7,23.1
		c9.1-13.5,23.9-23.1,41.8-23.1c29.9,0,48.5,24.1,48.6,53.9c0,0.1,0,0.2,0,0.3v0v0v0c0,0,0,0.1,0,0.1V204h-26.2v-86.6
		c0-15.5-12.6-28.7-28.1-28.7c-15.5,0-28.1,13.2-28.1,28.7V204h-26.2v-86.6C685.9,101.9,673.3,88.8,657.8,88.8z"/>
	<path class="st0" d="M934.4,82.6c-11.7-12.1-27.7-19.5-46.2-19.5c-39,0-66.8,33.1-66.8,72.5c0,39.4,27.7,72.5,66.8,72.5
		c18.5,0,34.5-7.5,46.2-19.5V204h26.2V67.1h-26.2V82.6z M847.7,135.6c0-26.1,20-46.8,43.4-46.8c23.3,0,43.4,20.6,43.4,46.8
		c0,26.1-20,46.8-43.4,46.8C867.7,182.3,847.7,161.7,847.7,135.6z"/>
</g>
<g>
	<rect y="0" class="st1" width="176.3" height="264.4"/>
	<path class="st2" d="M88.1,132.2c0-24.3,19.7-44.1,44.1-44.1l0,0c24.3,0,44.1,19.7,44.1,44.1l0,0c0,24.3-19.7,44.1-44.1,44.1l0,0
		C107.9,176.3,88.1,156.5,88.1,132.2L88.1,132.2z"/>
	<path class="st3" d="M0,220.3c0-24.3,19.7-44.1,44.1-44.1h44.1v44.1c0,24.3-19.7,44.1-44.1,44.1l0,0C19.7,264.4,0,244.7,0,220.3
		L0,220.3z"/>
	<path class="st4" d="M88.1,0v88.1h44.1c24.3,0,44.1-19.7,44.1-44.1l0,0c0-24.3-19.7-44.1-44.1-44.1H88.1z"/>
	<path class="st5" d="M0,44.1c0,24.3,19.7,44.1,44.1,44.1h44.1V0H44.1C19.7,0,0,19.7,0,44.1L0,44.1z"/>
	<path class="st6" d="M0,132.2c0,24.3,19.7,44.1,44.1,44.1h44.1V88.1H44.1C19.7,88.1,0,107.9,0,132.2L0,132.2z"/>
</g>
</svg>
