<svg xmlns="http://www.w3.org/2000/svg" xmlns:xlink="http://www.w3.org/1999/xlink" viewBox="0 0 112 32" fill="#fff" fill-rule="evenodd" stroke="#000" stroke-linecap="round" stroke-linejoin="round"><use xlink:href="#A" x=".5" y=".5"/><symbol id="A" overflow="visible"><g fill-rule="nonzero"><path d="M15.717 0a2.12 2.12 0 0 0-.814.216L3.89 5.472a2.09 2.09 0 0 0-1.138 1.417l-2.697 11.8a2.07 2.07 0 0 0 .287 1.61q.056.086.12.166l7.62 9.467a2.11 2.11 0 0 0 1.641.777h12.211a2.11 2.11 0 0 0 1.646-.784l7.612-9.47c.4-.495.55-1.147.406-1.766L28.881 6.877a2.09 2.09 0 0 0-1.138-1.417L16.738.22a2.12 2.12 0 0 0-1.021-.216z" stroke="none" fill="#326ce5"/><path d="M15.827 4.017a.7.7 0 0 0-.648.732v.186a5.8 5.8 0 0 0 .09.626c.061.396.082.796.065 1.196a.72.72 0 0 1-.216.341l-.015.28c-.4.033-.798.095-1.19.184a8.47 8.47 0 0 0-4.306 2.457l-.238-.168a.52.52 0 0 1-.391-.039c-.321-.238-.619-.506-.888-.801-.135-.16-.28-.315-.432-.46l-.155-.116c-.13-.105-.29-.165-.458-.173-.202-.01-.397.076-.525.233a.7.7 0 0 0 .162.972l.136.108a5.49 5.49 0 0 0 .546.32 6.15 6.15 0 0 1 .987.682.73.73 0 0 1 .132.38l.216.188a8.52 8.52 0 0 0-1.343 5.943l-.276.08a.93.93 0 0 1-.283.285 6.15 6.15 0 0 1-1.181.194c-.212.004-.423.021-.633.05l-.173.043h-.022a.66.66 0 0 0-.383 1.119.66.66 0 0 0 .677.163h.013l.18-.022a5.44 5.44 0 0 0 .592-.216c.37-.15.756-.262 1.15-.337a.73.73 0 0 1 .378.134l.287-.05a8.57 8.57 0 0 0 3.799 4.751l-.12.253a.65.65 0 0 1 .058.371c-.164.378-.363.74-.596 1.08-.128.17-.246.345-.354.527l-.086.177a.66.66 0 0 0 .643.99.66.66 0 0 0 .547-.427l.082-.168.2-.605c.173-.432.27-.896.5-1.183a.53.53 0 0 1 .283-.138l.15-.27a8.53 8.53 0 0 0 6.08.015l.13.253a.52.52 0 0 1 .337.203c.186.354.337.725.45 1.108a5.54 5.54 0 0 0 .192.605l.082.168a.66.66 0 0 0 1.174.13.66.66 0 0 0 .016-.693l-.086-.177a5.5 5.5 0 0 0-.354-.525c-.228-.33-.423-.68-.583-1.045-.032-.135-.008-.278.067-.395-.042-.086-.08-.175-.1-.266a8.57 8.57 0 0 0 3.783-4.768l.28.05a.52.52 0 0 1 .369-.136c.393.075.778.188 1.15.337a6.69 6.69 0 0 0 .592.23c.048.013.117.022.173.037h.013a.66.66 0 0 0 .832-.842.66.66 0 0 0-.54-.441l-.194-.043c-.21-.029-.421-.045-.633-.05a6.15 6.15 0 0 1-1.181-.194.74.74 0 0 1-.285-.285l-.266-.078a8.56 8.56 0 0 0-1.37-5.928l.233-.216a.52.52 0 0 1 .123-.374 6.15 6.15 0 0 1 .98-.689c.188-.096.37-.203.546-.32l.145-.117c.217-.135.337-.382.31-.636a.66.66 0 0 0-.44-.553c-.24-.083-.51-.022-.69.16l-.147.117a5.49 5.49 0 0 0-.432.46c-.26.3-.55.57-.864.814a.75.75 0 0 1-.4.043l-.25.18a8.64 8.64 0 0 0-5.474-2.641c0-.086-.013-.246-.015-.294a.52.52 0 0 1-.216-.328c-.014-.4.012-.8.076-1.194a5.3 5.3 0 0 0 .09-.626v-.188a.7.7 0 0 0-.648-.732zm-.825 5.11l-.194 3.455h-.015a.58.58 0 0 1-.922.445l-2.833-2.008c.902-.886 2.034-1.502 3.267-1.78a6.96 6.96 0 0 1 .7-.112zm1.65 0a6.84 6.84 0 0 1 3.945 1.903l-2.807 1.995a.58.58 0 0 1-.944-.445zm-6.647 3.194l2.59 2.31v.015a.58.58 0 0 1-.229.998v.01l-3.326.957a6.78 6.78 0 0 1 .963-4.293zm11.624 0a6.91 6.91 0 0 1 .991 4.28l-3.33-.96v-.013a.58.58 0 0 1-.229-.998l2.57-2.302zm-6.334 2.494h1.058l.648.82-.238 1.028-.95.458-.954-.458-.225-1.03zm3.397 2.807a.58.58 0 0 1 .134 0l3.43.58a6.79 6.79 0 0 1-2.745 3.455l-1.326-3.205c-.074-.175-.06-.374.042-.535s.272-.263.462-.274zm-5.76.015a.58.58 0 0 1 .525.81v.013l-1.32 3.18a6.82 6.82 0 0 1-2.725-3.416l3.4-.58c.038-.004.076-.004.114 0zm2.872 1.395a.58.58 0 0 1 .53.304h.013l1.676 3.023-.67.188a6.81 6.81 0 0 1-3.716-.192l1.67-3.023a.58.58 0 0 1 .495-.292z" stroke="#fff" stroke-width=".054"/><path d="M38.554 15.967l.637-.695q.328-.363.637-.717l.583-.674q.272-.32.47-.557h2.48q-.743.853-1.447 1.626-.706.773-1.546 1.598a9.63 9.63 0 0 1 .864.905q.447.525.864 1.08.417.555.77 1.123.35.56.587 1.024h-2.397q-.216-.367-.5-.808-.294-.443-.605-.868-.324-.432-.678-.85c-.215-.25-.45-.48-.706-.687v3.226h-2.086V10.162l2.086-.337v6.144zm12.158 4.466a11.61 11.61 0 0 1-1.371.287 11.42 11.42 0 0 1-1.762.134 4.16 4.16 0 0 1-1.56-.253 2.38 2.38 0 0 1-.987-.706c-.25-.318-.427-.686-.518-1.08a5.83 5.83 0 0 1-.153-1.386v-4.103h2.086v3.844q0 1.008.266 1.455.266.447.993.447.216 0 .475-.022.26-.022.447-.05v-5.68h2.086zm8.806-3.43a4.64 4.64 0 0 1-.26 1.596 3.37 3.37 0 0 1-.749 1.218 3.29 3.29 0 0 1-1.203.777 4.52 4.52 0 0 1-1.624.272q-.378 0-.8-.035-.4-.035-.812-.09-.4-.056-.762-.134-.363-.078-.648-.162V10.16l2.086-.337v3.67a3.95 3.95 0 0 1 .728-.238c.267-.058.539-.086.812-.084.476-.01.95.083 1.386.272.393.176.74.442 1.008.777a3.49 3.49 0 0 1 .615 1.211c.146.51.217 1.039.212 1.57zm-2.127-.056q0-2.015-1.484-2.015a2.46 2.46 0 0 0-.637.084 1.81 1.81 0 0 0-.512.216v3.786q.15.028.39.05.238.022.518.022a1.5 1.5 0 0 0 1.296-.587c.307-.46.457-1.004.428-1.555zm3.384.112a4.5 4.5 0 0 1 .3-1.715 3.67 3.67 0 0 1 .79-1.224c.32-.32.705-.568 1.127-.732.416-.167.86-.252 1.31-.253q1.568 0 2.477.96.907.96.907 2.82 0 .18-.013.4-.013.216-.028.384h-4.73a1.38 1.38 0 0 0 .602 1.02 2.42 2.42 0 0 0 1.427.378 6 6 0 0 0 1.127-.106c.3-.053.612-.14.903-.26l.28 1.693c-.144.068-.294.125-.447.168-.204.06-.412.109-.622.147q-.346.065-.734.108a7.36 7.36 0 0 1-.784.041 4.64 4.64 0 0 1-1.728-.294c-.46-.176-.876-.45-1.218-.805a3.19 3.19 0 0 1-.713-1.211c-.16-.5-.24-1.003-.238-1.518zm4.898-.8a2.16 2.16 0 0 0-.091-.518 1.31 1.31 0 0 0-.238-.447 1.27 1.27 0 0 0-.406-.322 1.23 1.23 0 0 0-.61-.125 1.4 1.4 0 0 0-.602.119 1.27 1.27 0 0 0-.42.315 1.41 1.41 0 0 0-.259.456 2.98 2.98 0 0 0-.134.525h2.758zm8.06-1.09q-.28-.07-.648-.147c-.267-.053-.54-.08-.812-.078-.157.002-.313.013-.47.035-.14.015-.277.04-.412.078v5.615h-2.087v-6.96a12.23 12.23 0 0 1 1.313-.367c.558-.122 1.128-.18 1.7-.175q.168 0 .406.022.238.022.475.056.238.035.475.086a2.18 2.18 0 0 1 .406.12zm1.468-1.594c.451-.123.909-.219 1.371-.287.584-.09 1.174-.136 1.764-.134a4.3 4.3 0 0 1 1.566.246c.384.14.724.38.987.693.25.312.426.674.518 1.062a5.6 5.6 0 0 1 .153 1.37v4.16h-2.088v-3.91q0-1.008-.266-1.425-.266-.42-.993-.42-.216 0-.475.022-.26.022-.447.05v5.68h-2.087v-7.11zm7.893 3.483a4.5 4.5 0 0 1 .3-1.715 3.67 3.67 0 0 1 .79-1.224 3.29 3.29 0 0 1 1.119-.732 3.53 3.53 0 0 1 1.309-.253q1.568 0 2.477.96.907.96.907 2.82 0 .18-.015.4-.015.216-.028.384h-4.73a1.38 1.38 0 0 0 .602 1.02 2.42 2.42 0 0 0 1.427.378 6 6 0 0 0 1.127-.106c.3-.053.612-.14.903-.26l.28 1.693c-.144.068-.294.124-.447.168-.205.06-.412.109-.622.147q-.346.065-.734.108a7.36 7.36 0 0 1-.784.041 4.64 4.64 0 0 1-1.728-.294c-.46-.176-.876-.45-1.218-.805a3.19 3.19 0 0 1-.708-1.218 4.79 4.79 0 0 1-.23-1.512zm4.898-.8a2.16 2.16 0 0 0-.091-.518 1.31 1.31 0 0 0-.238-.447 1.27 1.27 0 0 0-.406-.322 1.23 1.23 0 0 0-.61-.125 1.4 1.4 0 0 0-.602.119 1.27 1.27 0 0 0-.42.315 1.41 1.41 0 0 0-.259.456 2.97 2.97 0 0 0-.134.525h2.758zm3.552-4.772l2.086-.337v2.16h2.505v1.728H93.63v2.59a2.06 2.06 0 0 0 .231 1.05q.23.39.93.39a4.03 4.03 0 0 0 .693-.063c.22-.038.438-.096.648-.175l.294 1.624c-.273.11-.554.198-.84.266a4.9 4.9 0 0 1-1.134.112 3.73 3.73 0 0 1-1.412-.231 2.21 2.21 0 0 1-.896-.648 2.42 2.42 0 0 1-.47-1 5.9 5.9 0 0 1-.134-1.296v-6.17zm5.7 5.57a4.5 4.5 0 0 1 .3-1.715 3.67 3.67 0 0 1 .79-1.224 3.29 3.29 0 0 1 1.127-.732 3.53 3.53 0 0 1 1.309-.253q1.568 0 2.477.96.907.96.907 2.814 0 .18-.015.4-.015.216-.028.384h-4.73c.038.414.26.79.605 1.02a2.42 2.42 0 0 0 1.427.378 6 6 0 0 0 1.127-.106c.3-.053.612-.14.903-.26l.28 1.693c-.144.068-.294.124-.447.168-.204.06-.412.109-.622.147q-.346.065-.734.108a7.36 7.36 0 0 1-.784.041 4.64 4.64 0 0 1-1.728-.294c-.46-.176-.876-.45-1.218-.805a3.19 3.19 0 0 1-.721-1.211 4.82 4.82 0 0 1-.23-1.512zm4.902-.8a2.16 2.16 0 0 0-.091-.518 1.31 1.31 0 0 0-.238-.447 1.27 1.27 0 0 0-.406-.322 1.23 1.23 0 0 0-.61-.125 1.4 1.4 0 0 0-.602.119 1.27 1.27 0 0 0-.43.313 1.41 1.41 0 0 0-.259.456 2.97 2.97 0 0 0-.134.525zm5.73 2.926a2.08 2.08 0 0 0 .812-.112.43.43 0 0 0 .238-.432.53.53 0 0 0-.309-.432c-.3-.17-.613-.316-.937-.432l-.9-.378a2.61 2.61 0 0 1-.678-.469c-.187-.184-.334-.404-.432-.648-.11-.3-.16-.6-.153-.91-.025-.638.262-1.248.77-1.637q.77-.605 2.112-.605a6.79 6.79 0 0 1 1.296.119 6.01 6.01 0 0 1 .98.259l-.363 1.624a7.68 7.68 0 0 0-.79-.216c-.315-.068-.637-.1-.96-.097q-.98 0-.98.546a.57.57 0 0 0 .04.216c.038.077.096.14.168.188a2.6 2.6 0 0 0 .343.197q.216.108.553.233c.39.139.769.307 1.134.501a2.71 2.71 0 0 1 .706.533 1.65 1.65 0 0 1 .363.635c.074.263.11.536.106.81.036.655-.275 1.28-.818 1.648q-.82.557-2.315.56a6.72 6.72 0 0 1-1.63-.168 6.74 6.74 0 0 1-.903-.28l.35-1.693a6.76 6.76 0 0 0 1.09.328 5.3 5.3 0 0 0 1.097.11z" stroke="none" fill="#000"/></g></symbol></svg>