<svg xmlns="http://www.w3.org/2000/svg" xmlns:xlink="http://www.w3.org/1999/xlink" viewBox="0 0 103.88 25.88" fill="#fff" fill-rule="evenodd" stroke="#000" stroke-linecap="round" stroke-linejoin="round"><use xlink:href="#A" x="2.44" y="2.44"/><symbol id="A" overflow="visible"><path d="M18.348 20.568c-.567 0-1.111-.225-1.513-.624L4.265 7.324v11.062a2.15 2.15 0 0 1-2.132 2.132 2.1 2.1 0 0 1-1.518-.614A2.1 2.1 0 0 1 0 18.387v-16.2C.004 1.324.523.548 1.318.215a2.13 2.13 0 0 1 2.323.464l12.619 12.619V2.186c.008-1.174.958-2.125 2.132-2.132a2.14 2.14 0 0 1 2.132 2.132v16.2a2.15 2.15 0 0 1-2.132 2.132M28.263.024l-.585 1.093-4.538 8.237-.586 1.039.586 1.039 4.538 7.968.61 1.093h11.858l.586-1.2 3.386-6.822 1.464-3.094h-3.435l-8.661.024c-1.122-.015-2.162 1.005-2.162 2.132s1.034 2.147 2.162 2.132l5.221-.024-1.278 2.586h-6.656l-3.333-5.865 3.357-6.075h7.144l1.659 3.416h4.294l-2.703-6.48-.586-1.2h-12.35M49.851 0c-1.122.015-2.118 1.044-2.098 2.157V7.72h4.265V2.157C51.996.974 51.043.021 49.86 0m6.831 20.568c-1.174-.008-2.124-.958-2.132-2.132V2.22A2.15 2.15 0 0 1 56.692.088a2.14 2.14 0 0 1 2.132 2.132v11.111L71.443.712c.611-.606 1.526-.789 2.323-.463s1.318 1.108 1.318 1.971v16.264a2.15 2.15 0 0 1-2.132 2.132 2.14 2.14 0 0 1-2.132-2.132V7.368L58.2 19.987c-.4.4-.942.625-1.464.625m34.182-10.276l6.636-6.607a2.15 2.15 0 0 0 .005-3.016c-.835-.826-2.178-.828-3.016-.005l-6.636 6.622L81.271.708c-.83-.83-2.186-.83-3.016.005s-.83 2.186.005 3.016l6.636 6.607-6.636 6.587a2.15 2.15 0 0 0-.005 3.016 2.1 2.1 0 0 0 1.464.634c.563-.003 1.103-.227 1.503-.625l6.622-6.602 6.578 6.602a2.13 2.13 0 0 0 1.503.625c.561 0 1.093-.21 1.464-.634.83-.83.83-2.181-.005-3.016l-6.612-6.587M49.753 20.553c-1.122-.015-2.118-1.044-2.098-2.157v-8.93h4.265v8.92c-.021 1.182-.974 2.136-2.157 2.157" stroke="none" fill="#090" fill-rule="nonzero"/></symbol></svg>