<svg xmlns="http://www.w3.org/2000/svg" xmlns:xlink="http://www.w3.org/1999/xlink" viewBox="0 0 111 37" fill="#fff" fill-rule="evenodd" stroke="#000" stroke-linecap="round" stroke-linejoin="round"><style><![CDATA[.B{fill:#2f406a}.C{fill:#2379bd}.D{fill:#03afef}]]></style><use xlink:href="#A" x=".5" y=".5"/><symbol id="A" overflow="visible"><g stroke="none" fill-rule="nonzero"><path d="M26.554 11.421v12.9L15.6 30.759l-.1.092v4.866l.1.092 15.435-8.916V8.904h-.147l-4.352 2.433v.1" class="B"/><path d="M4.6 24.424l11 6.38v5.004L.046 26.856V8.952h.156l4.343 2.525.046.147v12.855" class="C"/><path d="M4.6 11.596L0 8.952 15.554 0l15.472 8.916-4.472 2.507-11.018-6.27L4.573 11.58" class="D"/><path d="M15.398 22.944l-.12-.12v-4.84l.12-.064v-.12l4.15-2.424h.13v4.995l-4.306 2.553" class="B"/><path d="M11.018 20.558V15.37h.12l4.224 2.46v5.124l-4.38-2.397" class="C"/><path d="M15.325 12.826l-4.306 2.553 4.379 2.525 4.306-2.516-4.38-2.6" class="D"/><path d="M10.036 26.104l-.12-.12v-4.85l.12-.064v-.12l4.15-2.424h.13v4.995L10 26.084" class="B"/><path d="M5.656 23.716v-5.188h.12L10 20.989v5.124l-4.343-2.397" class="C"/><path d="M9.972 15.984l-4.316 2.543 4.38 2.553 4.306-2.516-4.38-2.6" class="D"/><path d="M21.146 26.232l-.12-.12v-4.848l.12-.064v-.12l4.15-2.424h.13v4.995l-4.306 2.553" class="B"/><path d="M16.766 23.836v-5.188h.138l4.224 2.46v5.124l-4.38-2.397" class="C"/><path d="M21.073 16.068l-4.306 2.553 4.38 2.553 4.306-2.516-4.38-2.6" class="D"/><path d="M15.784 29.391l-.12-.12v-4.847l.12-.064v-.12l4.15-2.424h.13v4.995l-4.306 2.553" class="B"/><path d="M11.395 27.004v-5.18h.12l4.224 2.46v5.124l-4.344-2.404" class="C"/><path d="M15.7 19.264l-4.316 2.553 4.4 2.516 4.306-2.516-4.38-2.553" class="D"/><path d="M15.398 16.068l-.12-.12v-4.83l.12-.064v-.12l4.15-2.424h.13v4.994l-4.28 2.562" class="B"/><path d="M11.018 13.689V8.501h.12l4.224 2.46v5.105l-4.38-2.397" class="C"/><path d="M15.325 5.967L11.019 8.52l4.38 2.553 4.306-2.516-4.38-2.6" class="D"/><path d="M10.036 19.234l-.12-.12v-4.885l.12-.064v-.12l4.15-2.424h.13v4.995L10 19.169" class="B"/><path d="M5.656 16.848V11.66h.12L10 14.121v5.124l-4.343-2.397" class="C"/><path d="M9.972 9.117L5.656 11.66l4.38 2.57 4.306-2.516-4.38-2.6" class="D"/><path d="M21.146 19.354l-.12-.12v-4.83l.12-.064v-.12l4.15-2.424h.13v4.995l-4.306 2.543" class="B"/><path d="M16.766 16.986V11.78h.138l4.205 2.452v5.124l-4.343-2.37" class="C"/><path d="M21.073 9.236l-4.306 2.553 4.38 2.553 4.306-2.516-4.38-2.6" class="D"/><path d="M15.784 22.504l-.12-.12v-4.82l.12-.064v-.12l4.15-2.424h.13v4.995l-4.28 2.553" class="B"/><path d="M11.395 20.126v-5.188h.12l4.224 2.46v5.106l-4.343-2.37" class="C"/><path d="M15.7 12.404l-4.316 2.543 4.38 2.553 4.306-2.516-4.37-2.58" class="D"/><path d="M38.776 11.074q-2.892 0-2.892 2.176c-.086.634.165 1.267.66 1.67a8.87 8.87 0 0 0 2.7.918 6.86 6.86 0 0 1 2.883 1.148 2.98 2.98 0 0 1 .845 2.378q0 4.104-4.26 4.104c-1.182-.023-2.361-.133-3.526-.33l-.698-.092.156-1.23a33.18 33.18 0 0 0 3.994.35q2.856 0 2.856-2.68a1.84 1.84 0 0 0-.624-1.58 6.14 6.14 0 0 0-2.34-.8c-1.146-.173-2.24-.596-3.205-1.24-.702-.655-1.06-1.597-.973-2.553q0-3.6 4.297-3.6c1.132.014 2.26.1 3.38.285l.652.1-.064 1.285c-1.273-.175-2.554-.282-3.838-.321zM51.85 22.119l.56-.055v1.14c-1.247.189-2.504.294-3.765.312a3.39 3.39 0 0 1-2.947-1.203c-.666-1.13-.97-2.438-.872-3.746q0-5.068 4.03-5.068a3.67 3.67 0 0 1 2.938 1.074 5.08 5.08 0 0 1 .964 3.425l-.046 1.093H46.33a3.97 3.97 0 0 0 .578 2.37 2.37 2.37 0 0 0 2.011.771q1.442 0 2.93-.1zm-.523-4.215c.078-.875-.12-1.75-.57-2.507-.46-.522-1.142-.795-1.836-.735a2.37 2.37 0 0 0-1.928.771 3.91 3.91 0 0 0-.707 2.47zm6.896 5.6a3.23 3.23 0 0 1-2.755-1.139 6.7 6.7 0 0 1-.836-3.856c-.127-1.37.227-2.74 1-3.875q1-1.157 3.544-1.157l3.223.193v13.92h-1.423v-4.72c-.86.416-1.8.633-2.755.634zm.918-8.778c-.92-.115-1.84.228-2.46.918a5.04 5.04 0 0 0-.643 2.883 5.64 5.64 0 0 0 .533 2.837 1.93 1.93 0 0 0 1.781.854c.76-.001 1.514-.145 2.222-.422l.35-.138v-6.814q-1.166-.1-1.78-.1zm12.047-1.055h1.45v9.64h-1.45v-.67a5.51 5.51 0 0 1-2.865.863q-1.965 0-2.617-1.02c-.53-1.186-.75-2.488-.643-3.783v-5.032h1.423v5.013a7.09 7.09 0 0 0 .367 2.819q.367.716 1.662.716c.438-.002.874-.063 1.295-.184.343-.09.678-.209 1-.358l.35-.174zm10.78 8.448l.56-.055v1.14c-1.246.189-2.504.294-3.765.312a3.39 3.39 0 0 1-2.947-1.203c-.666-1.13-.97-2.438-.872-3.746q0-5.068 4.03-5.068c1.084-.085 2.15.315 2.9 1.093a5.08 5.08 0 0 1 .964 3.425l-.073 1.102H76.45a3.97 3.97 0 0 0 .578 2.37 2.37 2.37 0 0 0 2.011.771q1.442-.028 2.93-.138zm-.523-4.215c.078-.875-.12-1.75-.57-2.507-.46-.522-1.142-.795-1.836-.735a2.37 2.37 0 0 0-1.928.771 3.89 3.89 0 0 0-.68 2.47zm3.82 5.408V9.466h1.423v13.846zm4.333-11.835V9.804h1.442v1.662zm0 11.817v-9.623h1.442v9.64zm3.645-8.328v-1.295h7.153v1.295l-5.4 7.06h5.4v1.295h-7.153v-1.304l5.38-7.052zm15.857 7.153l.56-.055v1.14c-1.246.189-2.504.294-3.765.312a3.39 3.39 0 0 1-2.947-1.203c-.666-1.13-.97-2.438-.872-3.746q0-5.068 4.03-5.068c1.084-.085 2.15.315 2.9 1.093a5.08 5.08 0 0 1 .964 3.425l-.073 1.102h-6.326a3.97 3.97 0 0 0 .578 2.37 2.37 2.37 0 0 0 2.011.771q1.442-.028 2.93-.138zm-.523-4.215c.078-.875-.12-1.75-.57-2.507-.46-.522-1.142-.795-1.836-.735a2.37 2.37 0 0 0-1.928.771 3.89 3.89 0 0 0-.66 2.47z" class="B"/></g></symbol></svg>